<?xml version="1.0" encoding="UTF-8" standalone="no"?>
<svg
   xmlns:dc="http://purl.org/dc/elements/1.1/"
   xmlns:cc="http://creativecommons.org/ns#"
   xmlns:rdf="http://www.w3.org/1999/02/22-rdf-syntax-ns#"
   xmlns:svg="http://www.w3.org/2000/svg"
   xmlns="http://www.w3.org/2000/svg"
   xmlns:xlink="http://www.w3.org/1999/xlink"
   xmlns:sodipodi="http://sodipodi.sourceforge.net/DTD/sodipodi-0.dtd"
   xmlns:inkscape="http://www.inkscape.org/namespaces/inkscape"
   inkscape:export-ydpi="96"
   inkscape:export-xdpi="96"
   inkscape:export-filename="/home/steven/projects/h5cpp-doc/docs/icons/cpp_type_system.png"
   width="300mm"
   height="200mm"
   viewBox="0 0 300 200"
   version="1.1"
   id="svg8"
   sodipodi:docname="cpp_type_system_partial.svg"
   inkscape:version="0.92.3 (2405546, 2018-03-11)">
  <sodipodi:namedview
     inkscape:snap-global="false"
     pagecolor="#ffffff"
     bordercolor="#666666"
     inkscape:document-rotation="0"
     borderopacity="1"
     objecttolerance="10"
     gridtolerance="10"
     guidetolerance="10"
     inkscape:pageopacity="0"
     inkscape:pageshadow="2"
     inkscape:window-width="1366"
     inkscape:window-height="768"
     id="namedview613"
     showgrid="true"
     inkscape:zoom="0.76643991"
     inkscape:cx="569.06052"
     inkscape:cy="382.00149"
     inkscape:window-x="0"
     inkscape:window-y="0"
     inkscape:window-maximized="1"
     inkscape:current-layer="svg8"
     inkscape:snap-bbox="false">
    <inkscape:grid
       type="xygrid"
       id="grid1735"
       units="mm"
       spacingx="4.9999999"
       spacingy="4.9999999"
       empcolor="#ff3f4d"
       empopacity="0.25098039" />
  </sodipodi:namedview>
  <defs
     id="defs2">
    <marker
       orient="auto"
       refY="0"
       refX="0"
       id="marker14635"
       style="overflow:visible">
      <path
         id="path14633"
         d="M 0,0 5,-5 -12.5,0 5,5 Z"
         style="fill:#000000;fill-opacity:1;fill-rule:evenodd;stroke:#000000;stroke-width:1pt;stroke-opacity:1"
         transform="matrix(-0.8,0,0,-0.8,-10,0)"
         inkscape:connector-curvature="0" />
    </marker>
    <marker
       style="overflow:visible"
       id="marker9409"
       refX="0"
       refY="0"
       orient="auto">
      <path
         transform="matrix(-0.8,0,0,-0.8,-10,0)"
         style="fill:#000000;fill-opacity:1;fill-rule:evenodd;stroke:#000000;stroke-width:1pt;stroke-opacity:1"
         d="M 0,0 5,-5 -12.5,0 5,5 Z"
         id="path9407"
         inkscape:connector-curvature="0" />
    </marker>
    <marker
       orient="auto"
       refY="0"
       refX="0"
       id="marker9181"
       style="overflow:visible">
      <path
         id="path9179"
         d="M 0,0 5,-5 -12.5,0 5,5 Z"
         style="fill:#000000;fill-opacity:1;fill-rule:evenodd;stroke:#000000;stroke-width:1pt;stroke-opacity:1"
         transform="matrix(-0.8,0,0,-0.8,-10,0)"
         inkscape:connector-curvature="0" />
    </marker>
    <marker
       style="overflow:visible"
       id="marker8959"
       refX="0"
       refY="0"
       orient="auto">
      <path
         transform="matrix(-0.8,0,0,-0.8,-10,0)"
         style="fill:#000000;fill-opacity:1;fill-rule:evenodd;stroke:#000000;stroke-width:1pt;stroke-opacity:1"
         d="M 0,0 5,-5 -12.5,0 5,5 Z"
         id="path8957"
         inkscape:connector-curvature="0" />
    </marker>
    <marker
       orient="auto"
       refY="0"
       refX="0"
       id="marker8749"
       style="overflow:visible">
      <path
         id="path8747"
         d="M 0,0 5,-5 -12.5,0 5,5 Z"
         style="fill:#000000;fill-opacity:1;fill-rule:evenodd;stroke:#000000;stroke-width:1pt;stroke-opacity:1"
         transform="matrix(-0.8,0,0,-0.8,-10,0)"
         inkscape:connector-curvature="0" />
    </marker>
    <marker
       style="overflow:visible"
       id="marker8557"
       refX="0"
       refY="0"
       orient="auto">
      <path
         transform="matrix(-0.8,0,0,-0.8,-10,0)"
         style="fill:#000000;fill-opacity:1;fill-rule:evenodd;stroke:#000000;stroke-width:1pt;stroke-opacity:1"
         d="M 0,0 5,-5 -12.5,0 5,5 Z"
         id="path8555"
         inkscape:connector-curvature="0" />
    </marker>
    <marker
       orient="auto"
       refY="0"
       refX="0"
       id="marker8377"
       style="overflow:visible">
      <path
         id="path8375"
         d="M 0,0 5,-5 -12.5,0 5,5 Z"
         style="fill:#000000;fill-opacity:1;fill-rule:evenodd;stroke:#000000;stroke-width:1pt;stroke-opacity:1"
         transform="matrix(-0.8,0,0,-0.8,-10,0)"
         inkscape:connector-curvature="0" />
    </marker>
    <marker
       style="overflow:visible"
       id="marker8203"
       refX="0"
       refY="0"
       orient="auto">
      <path
         transform="matrix(-0.8,0,0,-0.8,-10,0)"
         style="fill:#000000;fill-opacity:1;fill-rule:evenodd;stroke:#000000;stroke-width:1pt;stroke-opacity:1"
         d="M 0,0 5,-5 -12.5,0 5,5 Z"
         id="path8201"
         inkscape:connector-curvature="0" />
    </marker>
    <marker
       orient="auto"
       refY="0"
       refX="0"
       id="marker8047"
       style="overflow:visible">
      <path
         id="path8045"
         d="M 0,0 5,-5 -12.5,0 5,5 Z"
         style="fill:#000000;fill-opacity:1;fill-rule:evenodd;stroke:#000000;stroke-width:1pt;stroke-opacity:1"
         transform="matrix(-0.8,0,0,-0.8,-10,0)"
         inkscape:connector-curvature="0" />
    </marker>
    <marker
       style="overflow:visible"
       id="marker7897"
       refX="0"
       refY="0"
       orient="auto">
      <path
         transform="matrix(-0.8,0,0,-0.8,-10,0)"
         style="fill:#000000;fill-opacity:1;fill-rule:evenodd;stroke:#000000;stroke-width:1pt;stroke-opacity:1"
         d="M 0,0 5,-5 -12.5,0 5,5 Z"
         id="path7895"
         inkscape:connector-curvature="0" />
    </marker>
    <marker
       orient="auto"
       refY="0"
       refX="0"
       id="marker7765"
       style="overflow:visible">
      <path
         id="path7763"
         d="M 0,0 5,-5 -12.5,0 5,5 Z"
         style="fill:#000000;fill-opacity:1;fill-rule:evenodd;stroke:#000000;stroke-width:1pt;stroke-opacity:1"
         transform="matrix(-0.8,0,0,-0.8,-10,0)"
         inkscape:connector-curvature="0" />
    </marker>
    <marker
       style="overflow:visible"
       id="marker7639"
       refX="0"
       refY="0"
       orient="auto">
      <path
         transform="matrix(-0.8,0,0,-0.8,-10,0)"
         style="fill:#000000;fill-opacity:1;fill-rule:evenodd;stroke:#000000;stroke-width:1pt;stroke-opacity:1"
         d="M 0,0 5,-5 -12.5,0 5,5 Z"
         id="path7637"
         inkscape:connector-curvature="0" />
    </marker>
    <marker
       orient="auto"
       refY="0"
       refX="0"
       id="marker7501"
       style="overflow:visible">
      <path
         id="path7499"
         d="M 0,0 5,-5 -12.5,0 5,5 Z"
         style="fill:#000000;fill-opacity:1;fill-rule:evenodd;stroke:#000000;stroke-width:1pt;stroke-opacity:1"
         transform="matrix(-0.8,0,0,-0.8,-10,0)"
         inkscape:connector-curvature="0" />
    </marker>
    <marker
       style="overflow:visible"
       id="marker6155"
       refX="0"
       refY="0"
       orient="auto">
      <path
         transform="scale(0.8)"
         style="fill:#000000;fill-opacity:1;fill-rule:evenodd;stroke:#000000;stroke-width:1pt;stroke-opacity:1"
         d="M 5.77,0 -2.88,5 V -5 Z"
         id="path6153"
         inkscape:connector-curvature="0" />
    </marker>
    <marker
       orient="auto"
       refY="0"
       refX="0"
       id="TriangleOutL"
       style="overflow:visible">
      <path
         id="path5891"
         d="M 5.77,0 -2.88,5 V -5 Z"
         style="fill:#000000;fill-opacity:1;fill-rule:evenodd;stroke:#000000;stroke-width:1pt;stroke-opacity:1"
         transform="scale(0.8)"
         inkscape:connector-curvature="0" />
    </marker>
  </defs>
  <metadata
     id="metadata5">
    <rdf:RDF>
      <cc:Work
         rdf:about="">
        <dc:format>image/svg+xml</dc:format>
        <dc:type
           rdf:resource="http://purl.org/dc/dcmitype/StillImage" />
        <dc:title></dc:title>
      </cc:Work>
    </rdf:RDF>
  </metadata>
  <polygon
     transform="matrix(0.35277777,0,0,0.35277777,-1211.6737,399.31255)"
     style="fill:#228b22;stroke:#000000"
     id="polygon2791"
     points="3830.094,-619 3830.094,-579 3909.094,-579 3909.094,-615 3842.094,-615 3842.094,-619 " />
  <polyline
     transform="matrix(0.35277777,0,0,0.35277777,-1211.6737,399.31255)"
     style="fill:none;stroke:#000000"
     id="polyline2793"
     points="3830.094,-615 3842.094,-615 " />
  <text
     style="font-size:4.93889px;font-family:Times, serif;text-anchor:middle;fill:#000000;stroke-width:0.352778"
     id="text2795"
     font-size="14.00"
     y="187.36371"
     x="153.43304">C++ Types</text>
  <polygon
     transform="matrix(0.35277777,0,0,0.35277777,-1117.9841,350.62228)"
     style="fill:#228b22;stroke:#000000"
     id="polygon2800"
     points="3705.094,-522 3705.094,-482 3782.094,-482 3782.094,-518 3717.094,-518 3717.094,-522 " />
  <polyline
     transform="matrix(0.35277777,0,0,0.35277777,-1117.9841,350.62228)"
     style="fill:none;stroke:#000000"
     id="polyline2802"
     points="3705.094,-518 3717.094,-518 " />
  <text
     style="font-size:4.93889px;font-family:Times, serif;text-anchor:middle;fill:#000000;stroke-width:0.352778"
     id="text2804"
     font-size="14.00"
     y="172.36372"
     x="202.67264">Compound</text>
  <polygon
     transform="matrix(0.40501316,0,0,0.35215542,-1538.8282,350.12653)"
     style="fill:#228b22;stroke:#000000"
     id="polygon2816"
     points="4088.594,-518 4012.594,-518 4012.594,-522 4000.594,-522 4000.594,-482 4088.594,-482 " />
  <polyline
     transform="matrix(0.35277777,0,0,0.35277777,-1327.4198,350.43896)"
     style="fill:none;stroke:#000000"
     id="polyline2818"
     points="4000.594,-518 4012.594,-518 " />
  <text
     style="font-size:4.93889px;font-family:Times, serif;text-anchor:middle;fill:#000000;stroke-width:0.352778"
     id="text2820"
     font-size="14.00"
     y="172.1804"
     x="99.42305">Fundamental</text>
  <g
     transform="matrix(0.35277777,0,0,0.35277777,-1063.2015,279.34718)"
     id="node17"
     class="node">
    <title
       id="title2830">cpp_array</title>
    <polygon
       points="3500.594,-450 3500.594,-410 3554.594,-410 3554.594,-446 3512.594,-446 3512.594,-450 "
       id="polygon2832"
       style="fill:#d3d3d3;stroke:#000000" />
    <polyline
       points="3500.594,-446 3512.594,-446 "
       id="polyline2834"
       style="fill:none;stroke:#000000" />
    <text
       x="3527.594"
       y="-424.29999"
       font-size="14.00"
       id="text2836"
       style="font-size:14px;font-family:Times, serif;text-anchor:middle;fill:#000000">Array</text>
  </g>
  <polygon
     transform="matrix(0.35277777,0,0,0.35277777,-1065.9017,279.16386)"
     style="fill:#ff0000;stroke:#000000"
     id="polygon2848"
     points="3626.594,-410 3626.594,-446 3584.594,-446 3584.594,-450 3572.594,-450 3572.594,-410 " />
  <polyline
     transform="matrix(0.35277777,0,0,0.35277777,-1065.9017,278.10552)"
     style="fill:none;stroke:#000000"
     id="polyline2850"
     points="3572.594,-446 3584.594,-446 " />
  <text
     style="font-size:4.93889px;font-family:Times, serif;text-anchor:middle;fill:#000000;stroke-width:0.352778"
     id="text2852"
     font-size="14.00"
     y="132.12601"
     x="203.95505">Enum</text>
  <polygon
     transform="matrix(0.35277777,0,0,0.35277777,-1051.9395,340.22228)"
     style="fill:#ff0000;stroke:#000000"
     id="polygon2864"
     points="3644.594,-450 3644.594,-410 3698.594,-410 3698.594,-446 3656.594,-446 3656.594,-450 " />
  <polyline
     transform="matrix(0.35277777,0,0,0.35277777,-1051.9395,340.22228)"
     style="fill:none;stroke:#000000"
     id="polyline2866"
     points="3644.594,-446 3656.594,-446 " />
  <text
     style="font-size:4.93889px;font-family:Times, serif;text-anchor:middle;fill:#000000;stroke-width:0.352778"
     id="text2868"
     font-size="14.00"
     y="194.2428"
     x="242.25894">Union</text>
  <g
     transform="matrix(0.35277777,0,0,0.35277777,-1034.9307,279.10971)"
     id="node20"
     class="node">
    <title
       id="title2878">cpp_class</title>
    <polygon
       points="3770.594,-410 3770.594,-446 3728.594,-446 3728.594,-450 3716.594,-450 3716.594,-410 "
       id="polygon2880"
       style="fill:#d3d3d3;stroke:#000000" />
    <polyline
       points="3716.594,-446 3728.594,-446 "
       id="polyline2882"
       style="fill:none;stroke:#000000" />
    <text
       x="3743.594"
       y="-424.29999"
       font-size="14.00"
       id="text2884"
       style="font-size:14px;font-family:Times, serif;text-anchor:middle;fill:#000000">Class</text>
  </g>
  <g
     transform="matrix(0.35277777,0,0,0.35277777,-1277.8611,295.40552)"
     id="node21"
     class="node">
    <title
       id="title2894">cpp_pointer</title>
    <polygon
       points="3788.594,-410 3844.594,-410 3844.594,-446 3800.594,-446 3800.594,-450 3788.594,-450 "
       id="polygon2896"
       style="fill:#d3d3d3;stroke:#000000" />
    <polyline
       points="3788.594,-446 3800.594,-446 "
       id="polyline2898"
       style="fill:none;stroke:#000000" />
    <text
       x="3816.594"
       y="-424.29999"
       font-size="14.00"
       id="text2900"
       style="font-size:14px;font-family:Times, serif;text-anchor:middle;fill:#000000">Pointer</text>
  </g>
  <g
     transform="matrix(0.35277777,0,0,0.35277777,-1304.15,279.69303)"
     id="node22"
     class="node">
    <title
       id="title2910">cpp_reference</title>
    <polygon
       points="3875.094,-450 3863.094,-450 3863.094,-410 3934.094,-410 3934.094,-446 3875.094,-446 "
       id="polygon2912"
       style="fill:#d3d3d3;stroke:#000000" />
    <polyline
       points="3863.094,-446 3875.094,-446 "
       id="polyline2914"
       style="fill:none;stroke:#000000" />
    <text
       x="3898.594"
       y="-424.29999"
       font-size="14.00"
       id="text2916"
       style="font-size:14px;font-family:Times, serif;text-anchor:middle;fill:#000000">Reference</text>
  </g>
  <g
     transform="matrix(0.35277777,0,0,0.35277777,-1306.9427,300.69722)"
     id="node24"
     class="node">
    <title
       id="title2942">cpp_arithmetic</title>
    <polygon
       points="4068.594,-450 4056.594,-450 4056.594,-410 4132.594,-410 4132.594,-446 4068.594,-446 "
       id="polygon2944"
       style="fill:#d3d3d3;stroke:#000000" />
    <polyline
       points="4056.594,-446 4068.594,-446 "
       id="polyline2946"
       style="fill:none;stroke:#000000" />
    <text
       x="4094.594"
       y="-424.29999"
       font-size="14.00"
       id="text2948"
       style="font-size:14px;font-family:Times, serif;text-anchor:middle;fill:#000000">Arithmetic</text>
  </g>
  <polygon
     transform="matrix(0.35277777,0,0,0.35277777,-1376.1028,279.69303)"
     style="fill:#d3d3d3;stroke:#000000"
     id="polygon2960"
     points="4150.594,-450 4150.594,-410 4204.594,-410 4204.594,-446 4162.594,-446 4162.594,-450 " />
  <polyline
     transform="matrix(0.35277777,0,0,0.35277777,-1376.1028,279.16386)"
     style="fill:none;stroke:#000000"
     id="polyline2962"
     points="4150.594,-446 4162.594,-446 " />
  <text
     style="font-size:4.93889px;font-family:Times, serif;text-anchor:middle;fill:#000000;stroke-width:0.352778"
     id="text2964"
     font-size="14.00"
     y="129.48026"
     x="97.659576">Void*</text>
  <g
     transform="matrix(0.35277777,0,0,0.35277777,-1303.2406,254.29303)"
     id="node25"
     class="node">
    <title
       id="title3002">cpp_integral</title>
    <polygon
       points="4017.094,-378 4017.094,-338 4076.094,-338 4076.094,-374 4029.094,-374 4029.094,-378 "
       id="polygon3004"
       style="fill:#d3d3d3;stroke:#000000" />
    <polyline
       points="4017.094,-374 4029.094,-374 "
       id="polyline3006"
       style="fill:none;stroke:#000000" />
    <text
       x="4046.594"
       y="-352.29999"
       font-size="14.00"
       id="text3008"
       style="font-size:14px;font-family:Times, serif;text-anchor:middle;fill:#000000">Integral</text>
  </g>
  <g
     transform="matrix(0.35277777,0,0,0.35277777,-1307.6429,254.29303)"
     id="node26"
     class="node">
    <title
       id="title3018">cpp_floating_point</title>
    <polygon
       points="4188.594,-374 4106.594,-374 4106.594,-378 4094.594,-378 4094.594,-338 4188.594,-338 "
       id="polygon3020"
       style="fill:#d3d3d3;stroke:#000000" />
    <polyline
       points="4094.594,-374 4106.594,-374 "
       id="polyline3022"
       style="fill:none;stroke:#000000" />
    <text
       x="4141.5942"
       y="-352.29999"
       font-size="14.00"
       id="text3024"
       style="font-size:14px;font-family:Times, serif;text-anchor:middle;fill:#000000">Floating Point</text>
  </g>
  <path
     inkscape:connector-curvature="0"
     id="path7609"
     d="m 197.8316,166.96987 c -7.42966,-7.7681 -20.34795,-6.41275 -16.12917,-33.54344"
     style="fill:none;fill-rule:evenodd;stroke:#000000;stroke-width:0.264583px;stroke-linecap:butt;stroke-linejoin:miter;stroke-opacity:1;marker-end:url(#marker7501)" />
  <path
     inkscape:connector-curvature="0"
     id="path7629"
     d="m 206.72242,167.24717 c -6.97109,-6.10039 -12.99232,-12.96173 -2.27492,-33.2325"
     style="fill:none;fill-rule:evenodd;stroke:#000000;stroke-width:0.264583px;stroke-linecap:butt;stroke-linejoin:miter;stroke-opacity:1;marker-end:url(#marker7639)" />
  <path
     inkscape:connector-curvature="0"
     id="path7755"
     d="M 217.14261,171.75701 C 214.70197,117.87242 245.0382,123.96316 273.467,126.56366"
     style="fill:none;fill-rule:evenodd;stroke:#000000;stroke-width:0.264583px;stroke-linecap:butt;stroke-linejoin:miter;stroke-opacity:1;marker-end:url(#marker7765)" />
  <path
     inkscape:connector-curvature="0"
     id="path7887"
     d="m 217.35262,176.90262 c 7.36241,-5.60069 -3.90156,14.41835 15.4191,13.48898"
     style="fill:none;fill-rule:evenodd;stroke:#000000;stroke-width:0.264583px;stroke-linecap:butt;stroke-linejoin:miter;stroke-opacity:1;marker-end:url(#marker7897)" />
  <path
     inkscape:connector-curvature="0"
     id="path8037"
     d="m 136.60447,142.83823 c -5.75497,-1.71482 -15.32147,-0.31235 -13.72548,-8.03924"
     style="fill:none;fill-rule:evenodd;stroke:#000000;stroke-width:0.264583px;stroke-linecap:butt;stroke-linejoin:miter;stroke-opacity:1;marker-end:url(#marker8047)" />
  <path
     inkscape:connector-curvature="0"
     id="path8193"
     d="m 142.54831,142.91945 c 10.7902,-1.08068 11.52367,-4.18615 11.13128,-7.51829"
     style="fill:none;fill-rule:evenodd;stroke:#000000;stroke-width:0.264583px;stroke-linecap:butt;stroke-linejoin:miter;stroke-opacity:1;marker-end:url(#marker8203)" />
  <path
     inkscape:connector-curvature="0"
     id="path8367"
     d="m 104.8398,166.95598 c 3.83869,-6.58895 -3.65588,-16.86067 18.03919,-17.64713"
     style="fill:none;fill-rule:evenodd;stroke:#000000;stroke-width:0.264583px;stroke-linecap:butt;stroke-linejoin:miter;stroke-opacity:1;marker-end:url(#marker8377)" />
  <path
     inkscape:connector-curvature="0"
     id="path8547"
     d="m 167.58481,187.74026 c 11.37375,2.27641 26.26465,10.04536 25.55266,-6.5518"
     style="fill:none;fill-rule:evenodd;stroke:#000000;stroke-width:0.264583px;stroke-linecap:butt;stroke-linejoin:miter;stroke-opacity:1;marker-end:url(#marker8557)" />
  <path
     inkscape:connector-curvature="0"
     id="path8739"
     d="m 137.38877,186.95595 c -16.93526,1.09092 -39.409546,6.87472 -39.999939,-5.88234"
     style="fill:none;fill-rule:evenodd;stroke:#000000;stroke-width:0.264583px;stroke-linecap:butt;stroke-linejoin:miter;stroke-opacity:1;marker-end:url(#marker8749)" />
  <path
     inkscape:connector-curvature="0"
     id="path9171"
     d="M 188.66349,175.58339 C 151.99682,165.58338 105.26992,171.31714 78.663487,145.58327"
     style="fill:none;fill-rule:evenodd;stroke:#000000;stroke-width:0.253319px;stroke-linecap:butt;stroke-linejoin:miter;stroke-opacity:1;marker-end:url(#marker9181)" />
  <path
     inkscape:connector-curvature="0"
     id="path9399"
     d="m 188.66349,170.58339 c -36.02978,-11.0895 -72.82523,0.8767 -108.050262,-34.44558"
     style="fill:none;fill-rule:evenodd;stroke:#000000;stroke-width:0.250271px;stroke-linecap:butt;stroke-linejoin:miter;stroke-opacity:1;marker-end:url(#marker9409)" />
  <path
     inkscape:connector-curvature="0"
     id="path14625"
     d="M 99.255281,166.46727 97.948278,134.52479"
     style="fill:none;fill-rule:evenodd;stroke:#000000;stroke-width:0.264583px;stroke-linecap:butt;stroke-linejoin:miter;stroke-opacity:1;marker-end:url(#marker14635)" />
  <text
     id="text19025"
     y="65.848389"
     x="23.577726"
     style="font-style:normal;font-weight:normal;font-size:2.82222px;line-height:1.25;font-family:sans-serif;letter-spacing:0px;word-spacing:0px;fill:#000000;fill-opacity:1;stroke:none;stroke-width:0.264583"
     xml:space="preserve" />
  <image
     sodipodi:absref="/home/steven/projects/C++TO/images/./hypercube.svg"
     xlink:href="./hypercube.svg"
     y="65.448357"
     x="86.586212"
     preserveAspectRatio="none"
     inkscape:svg-dpi="96"
     width="45.000069"
     height="39.999973"
     id="image898" />
  <image
     sodipodi:absref="/home/steven/projects/C++TO/images/colvector.svg"
     xlink:href="colvector.svg"
     y="66.069214"
     x="41.639576"
     preserveAspectRatio="none"
     inkscape:svg-dpi="96"
     width="4.99999"
     height="39.999973"
     style="image-rendering:optimizeQuality"
     id="image1527" />
  <image
     sodipodi:absref="/home/steven/projects/C++TO/images/matrix.svg"
     xlink:href="matrix.svg"
     y="75.448311"
     x="51.661716"
     preserveAspectRatio="none"
     inkscape:svg-dpi="96"
     width="30.000046"
     height="30.000046"
     style="image-rendering:optimizeQuality"
     id="image1806" />
  <image
     sodipodi:absref="/home/steven/projects/C++TO/images/ragged.svg"
     xlink:href="ragged.svg"
     y="75.448311"
     x="1.6617641"
     preserveAspectRatio="none"
     inkscape:svg-dpi="96"
     width="30.000046"
     height="30.000046"
     style="image-rendering:optimizeQuality"
     id="image2221" />
  <inkscape:templateinfo>
    <inkscape:name>h5cpp</inkscape:name>
    <inkscape:author>steven varga</inkscape:author>
    <inkscape:date>2019-11-27</inkscape:date>
  </inkscape:templateinfo>
  <path
     transform="scale(0.26458333)"
     inkscape:connector-curvature="0"
     id="path3631"
     d=""
     style="fill:#ff0000;fill-opacity:1;stroke:#000000;stroke-width:1.30473;stroke-linecap:round;stroke-linejoin:bevel;stroke-miterlimit:4;stroke-dasharray:none;stroke-dashoffset:0;stroke-opacity:1;paint-order:markers stroke fill" />
  <g
     transform="translate(251.87769,1.3858411)"
     id="g3732">
    <polygon
       points="3964.594,-450 3952.594,-450 3952.594,-410 4038.594,-410 4038.594,-446 3964.594,-446 "
       id="polygon2928"
       style="fill:#d3d3d3;stroke:#000000"
       transform="matrix(0.35277777,0,0,0.35277777,-1388.0179,338.51422)" />
    <path
       style="fill:#ff0000;fill-opacity:1;stroke:#000000;stroke-width:0.0610254;stroke-linecap:round;stroke-linejoin:bevel;stroke-miterlimit:4;stroke-dasharray:none;stroke-dashoffset:0;stroke-opacity:1;paint-order:markers stroke fill"
       d="m 6.5847269,180.46549 v -0.51872 h 1.8917819 1.8917822 v 0.51872 0.51871 H 8.4765088 6.5847269 Z"
       id="path3635"
       inkscape:connector-curvature="0" />
    <polyline
       points="3952.594,-446 3964.594,-446 "
       id="polyline2930"
       style="fill:none;stroke:#000000"
       transform="matrix(0.35277777,0,0,0.35277777,-1388.0179,338.51422)" />
    <path
       style="fill:#ff0000;fill-opacity:1;stroke:#000000;stroke-width:0.34520999;stroke-linecap:round;stroke-linejoin:bevel;stroke-miterlimit:4;stroke-dasharray:none;stroke-dashoffset:0;stroke-opacity:1;paint-order:markers stroke fill"
       d="m 6.7794292,191.44267 c 0,-1.53829 0.166628,-2.31451 0.5995363,-2.79287 0.569241,-0.629 0.569241,-0.68463 0,-1.10087 -0.6292363,-0.46011 -0.8506473,-1.07603 -0.2543254,-0.70748 0.1898661,0.11734 0.3452109,0.058 0.3452109,-0.13187 0,-0.18986 -0.1553448,-0.44121 -0.3452109,-0.55856 -0.1898658,-0.11734 -0.3452109,-1.21392 -0.3452109,-2.43685 v -2.22349 H 21.654155 36.528883 l -0.193117,2.15756 c -0.106212,1.18667 -0.209299,2.39059 -0.229079,2.67539 -0.01979,0.2848 0.07614,2.03243 0.213172,3.88362 l 0.249137,3.3658 H 21.674213 6.7794292 Z m 20.6272448,-1.75054 c -0.07862,-0.23584 0.180292,-0.58926 0.575352,-0.78536 0.823108,-0.40859 1.126723,-1.71043 0.558565,-2.39502 -0.211932,-0.25536 -0.884074,-0.46429 -1.493647,-0.46429 h -1.108316 v 2.03674 c 0,1.90359 0.05266,2.03675 0.805492,2.03675 0.488262,0 0.749199,-0.16889 0.662554,-0.42882 z m 8.111553,0.18519 c -0.427196,-0.0823 -1.126249,-0.0823 -1.553448,0 -0.427199,0.0823 -0.07767,0.1496 0.776724,0.1496 0.854398,0 1.203923,-0.0673 0.776724,-0.1496 z M 9.7240814,188.72334 c 0.1385093,-0.22411 0.3763516,-0.24142 0.6244916,-0.0455 0.220429,0.17409 0.918424,0.32695 1.551099,0.33969 0.891706,0.018 1.105132,-0.0946 0.94933,-0.5006 -0.110544,-0.28807 -0.200989,-1.21011 -0.200989,-2.04898 0,-1.34129 -0.09158,-1.52522 -0.759464,-1.52522 -0.590694,0 -0.667407,0.0921 -0.345211,0.41426 0.576666,0.57666 0.517521,0.98455 -0.107959,0.74453 -0.287217,-0.11022 -0.726962,-0.0305 -0.977211,0.17722 -0.341433,0.28337 -0.6510331,0.19498 -1.2404065,-0.3541 -0.6241963,-0.58153 -0.8441129,-0.63673 -1.0714143,-0.26895 -0.2551795,0.41289 -0.1599049,1.80239 0.205569,2.99806 0.1602497,0.52427 1.062858,0.57001 1.3721652,0.0695 z m 4.3565566,-0.15584 c 0,-0.18037 -0.166996,-0.38362 -0.371102,-0.45165 -0.204106,-0.068 -0.371102,0.13521 -0.371102,0.45165 0,0.31644 0.166996,0.51968 0.371102,0.45165 0.204106,-0.068 0.371102,-0.27128 0.371102,-0.45165 z m 1.674272,0 c 0,-0.2848 -0.155345,-0.51782 -0.345211,-0.51782 -0.189866,0 -0.345211,0.23302 -0.345211,0.51782 0,0.2848 0.155345,0.51781 0.345211,0.51781 0.189866,0 0.345211,-0.23301 0.345211,-0.51781 z m 3.561754,-0.63289 c -0.27891,-1.47437 -0.624945,-1.84615 -1.748035,-1.87808 -0.895652,-0.0255 -0.950692,0.0598 -0.950692,1.47211 v 1.49914 h 1.452762 c 1.444567,0 1.451596,-0.006 1.245965,-1.09317 z m 6.317197,0.6138 c -0.117177,-0.30536 -0.213049,-1.24154 -0.213049,-2.08041 0,-1.05207 -0.144914,-1.52522 -0.467141,-1.52522 -0.352544,0 -0.426456,0.42344 -0.30129,1.72606 0.137602,1.43206 0.07017,1.72605 -0.395886,1.72605 -0.443943,0 -0.561737,-0.36194 -0.561737,-1.72605 0,-1.22092 -0.136712,-1.72606 -0.467141,-1.72606 -0.352544,0 -0.426456,0.42344 -0.30129,1.72606 0.110359,1.14853 0.03565,1.72605 -0.22328,1.72605 -0.214023,0 -0.389132,-0.45686 -0.389132,-1.01526 0,-1.08503 -0.449751,-1.5907 -1.072488,-1.20583 -0.273011,0.16873 -0.262467,0.31005 0.03694,0.49509 0.249513,0.15421 0.324833,0.55568 0.186198,0.99248 -0.362425,1.1419 -0.876706,0.86343 -0.876706,-0.47472 0,-0.83474 -0.157399,-1.20823 -0.509186,-1.20823 -0.474785,0 -0.477097,1.04729 -0.0058,2.63311 0.07195,0.2421 1.185179,0.40868 2.944863,0.44066 2.469895,0.0449 2.802129,-0.0191 2.616136,-0.50378 z m 6.787511,-0.72921 c -0.175604,-1.08211 -0.122283,-1.23418 0.366913,-1.04646 0.358932,0.13773 0.572376,0.0458 0.572376,-0.24665 0,-0.31491 -0.474067,-0.47283 -1.460299,-0.48644 -0.803164,-0.0111 -1.515163,-0.18474 -1.582216,-0.3859 -0.06706,-0.20117 -0.34199,-0.36576 -0.610965,-0.36576 -0.617898,0 -0.724694,1.07476 -0.300151,3.0206 0.144592,0.66272 0.393329,0.77672 1.694635,0.77672 h 1.525166 z m -18.047305,-0.80515 c 0,-0.18987 -0.233017,-0.34521 -0.517816,-0.34521 -0.284799,0 -0.517817,0.15534 -0.517817,0.34521 0,0.18987 0.233018,0.34521 0.517817,0.34521 0.284799,0 0.517816,-0.15534 0.517816,-0.34521 z m 1.380843,0 c 0,-0.18987 -0.155345,-0.34521 -0.345211,-0.34521 -0.189866,0 -0.345211,0.15534 -0.345211,0.34521 0,0.18987 0.155345,0.34521 0.345211,0.34521 0.189866,0 0.345211,-0.15534 0.345211,-0.34521 z"
       id="path3610"
       inkscape:connector-curvature="0" />
    <path
       style="fill:#ff0000;fill-opacity:1;stroke:#000000;stroke-width:0.34520999;stroke-linecap:round;stroke-linejoin:bevel;stroke-miterlimit:4;stroke-dasharray:none;stroke-dashoffset:0;stroke-opacity:1;paint-order:markers stroke fill"
       d="m 6.7794292,191.44267 c 0,-1.53829 0.166628,-2.31451 0.5995363,-2.79287 0.569241,-0.629 0.569241,-0.68463 0,-1.10087 -0.6292363,-0.46011 -0.8506473,-1.07603 -0.2543254,-0.70748 0.1898661,0.11734 0.3452109,0.058 0.3452109,-0.13187 0,-0.18986 -0.1553448,-0.44121 -0.3452109,-0.55856 -0.1898658,-0.11734 -0.3452109,-1.21392 -0.3452109,-2.43685 v -2.22349 H 21.654155 36.528883 l -0.193117,2.15756 c -0.106212,1.18667 -0.209299,2.39059 -0.229079,2.67539 -0.01979,0.2848 0.07614,2.03243 0.213172,3.88362 l 0.249137,3.3658 H 21.674213 6.7794292 Z m 20.6272448,-1.75054 c -0.07862,-0.23584 0.180292,-0.58926 0.575352,-0.78536 0.823108,-0.40859 1.126723,-1.71043 0.558565,-2.39502 -0.211932,-0.25536 -0.884074,-0.46429 -1.493647,-0.46429 h -1.108316 v 2.03674 c 0,1.90359 0.05266,2.03675 0.805492,2.03675 0.488262,0 0.749199,-0.16889 0.662554,-0.42882 z m 8.111553,0.18519 c -0.427196,-0.0823 -1.126249,-0.0823 -1.553448,0 -0.427199,0.0823 -0.07767,0.1496 0.776724,0.1496 0.854398,0 1.203923,-0.0673 0.776724,-0.1496 z M 9.7240814,188.72334 c 0.1385093,-0.22411 0.3763516,-0.24142 0.6244916,-0.0455 0.220429,0.17409 0.918424,0.32695 1.551099,0.33969 0.891706,0.018 1.105132,-0.0946 0.94933,-0.5006 -0.110544,-0.28807 -0.200989,-1.21011 -0.200989,-2.04898 0,-1.34129 -0.09158,-1.52522 -0.759464,-1.52522 -0.590694,0 -0.667407,0.0921 -0.345211,0.41426 0.576666,0.57666 0.517521,0.98455 -0.107959,0.74453 -0.287217,-0.11022 -0.726962,-0.0305 -0.977211,0.17722 -0.341433,0.28337 -0.6510331,0.19498 -1.2404065,-0.3541 -0.6241963,-0.58153 -0.8441129,-0.63673 -1.0714143,-0.26895 -0.2551795,0.41289 -0.1599049,1.80239 0.205569,2.99806 0.1602497,0.52427 1.062858,0.57001 1.3721652,0.0695 z m 4.3565566,-0.15584 c 0,-0.18037 -0.166996,-0.38362 -0.371102,-0.45165 -0.204106,-0.068 -0.371102,0.13521 -0.371102,0.45165 0,0.31644 0.166996,0.51968 0.371102,0.45165 0.204106,-0.068 0.371102,-0.27128 0.371102,-0.45165 z m 1.674272,0 c 0,-0.2848 -0.155345,-0.51782 -0.345211,-0.51782 -0.189866,0 -0.345211,0.23302 -0.345211,0.51782 0,0.2848 0.155345,0.51781 0.345211,0.51781 0.189866,0 0.345211,-0.23301 0.345211,-0.51781 z m 3.561754,-0.63289 c -0.27891,-1.47437 -0.624945,-1.84615 -1.748035,-1.87808 -0.895652,-0.0255 -0.950692,0.0598 -0.950692,1.47211 v 1.49914 h 1.452762 c 1.444567,0 1.451596,-0.006 1.245965,-1.09317 z m 6.317197,0.6138 c -0.117177,-0.30536 -0.213049,-1.24154 -0.213049,-2.08041 0,-1.05207 -0.144914,-1.52522 -0.467141,-1.52522 -0.352544,0 -0.426456,0.42344 -0.30129,1.72606 0.137602,1.43206 0.07017,1.72605 -0.395886,1.72605 -0.443943,0 -0.561737,-0.36194 -0.561737,-1.72605 0,-1.22092 -0.136712,-1.72606 -0.467141,-1.72606 -0.352544,0 -0.426456,0.42344 -0.30129,1.72606 0.110359,1.14853 0.03565,1.72605 -0.22328,1.72605 -0.214023,0 -0.389132,-0.45686 -0.389132,-1.01526 0,-1.08503 -0.449751,-1.5907 -1.072488,-1.20583 -0.273011,0.16873 -0.262467,0.31005 0.03694,0.49509 0.249513,0.15421 0.324833,0.55568 0.186198,0.99248 -0.362425,1.1419 -0.876706,0.86343 -0.876706,-0.47472 0,-0.83474 -0.157399,-1.20823 -0.509186,-1.20823 -0.474785,0 -0.477097,1.04729 -0.0058,2.63311 0.07195,0.2421 1.185179,0.40868 2.944863,0.44066 2.469895,0.0449 2.802129,-0.0191 2.616136,-0.50378 z m 6.787511,-0.72921 c -0.175604,-1.08211 -0.122283,-1.23418 0.366913,-1.04646 0.358932,0.13773 0.572376,0.0458 0.572376,-0.24665 0,-0.31491 -0.474067,-0.47283 -1.460299,-0.48644 -0.803164,-0.0111 -1.515163,-0.18474 -1.582216,-0.3859 -0.06706,-0.20117 -0.34199,-0.36576 -0.610965,-0.36576 -0.617898,0 -0.724694,1.07476 -0.300151,3.0206 0.144592,0.66272 0.393329,0.77672 1.694635,0.77672 h 1.525166 z m -18.047305,-0.80515 c 0,-0.18987 -0.233017,-0.34521 -0.517816,-0.34521 -0.284799,0 -0.517817,0.15534 -0.517817,0.34521 0,0.18987 0.233018,0.34521 0.517817,0.34521 0.284799,0 0.517816,-0.15534 0.517816,-0.34521 z m 1.380843,0 c 0,-0.18987 -0.155345,-0.34521 -0.345211,-0.34521 -0.189866,0 -0.345211,0.15534 -0.345211,0.34521 0,0.18987 0.155345,0.34521 0.345211,0.34521 0.189866,0 0.345211,-0.15534 0.345211,-0.34521 z"
       id="path3612"
       inkscape:connector-curvature="0" />
    <path
       style="fill:#ff0000;fill-opacity:1;stroke:#000000;stroke-width:0.34520999;stroke-linecap:round;stroke-linejoin:bevel;stroke-miterlimit:4;stroke-dasharray:none;stroke-dashoffset:0;stroke-opacity:1;paint-order:markers stroke fill"
       d="m 6.7794292,187.53186 v -6.04118 H 21.623494 36.467557 v 6.04118 6.04119 H 21.623494 6.7794292 Z"
       id="path3617"
       inkscape:connector-curvature="0" />
    <path
       style="fill:#ff0000;fill-opacity:1;stroke:#000000;stroke-width:0.34520999;stroke-linecap:round;stroke-linejoin:bevel;stroke-miterlimit:4;stroke-dasharray:none;stroke-dashoffset:0;stroke-opacity:1;paint-order:markers stroke fill"
       d="m 6.7794292,187.53186 v -6.04118 H 21.623494 36.467557 v 6.04118 6.04119 H 21.623494 6.7794292 Z"
       id="path3619"
       inkscape:connector-curvature="0" />
    <path
       style="fill:#ff0000;fill-opacity:1;stroke:#000000;stroke-width:0.34520999;stroke-linecap:round;stroke-linejoin:bevel;stroke-miterlimit:4;stroke-dasharray:none;stroke-dashoffset:0;stroke-opacity:1;paint-order:markers stroke fill"
       d="m 6.7794292,187.53186 v -6.04118 H 21.623494 36.467557 v 6.04118 6.04119 H 21.623494 6.7794292 Z"
       id="path3621"
       inkscape:connector-curvature="0" />
    <path
       style="fill:#ff0000;fill-opacity:1;stroke:#000000;stroke-width:0.34520999;stroke-linecap:round;stroke-linejoin:bevel;stroke-miterlimit:4;stroke-dasharray:none;stroke-dashoffset:0;stroke-opacity:1;paint-order:markers stroke fill"
       d="m 6.7794292,187.53186 v -6.04118 H 21.623494 36.467557 v 6.04118 6.04119 H 21.623494 6.7794292 Z"
       id="path3623"
       inkscape:connector-curvature="0" />
    <path
       style="fill:#ff0000;fill-opacity:1;stroke:#000000;stroke-width:0.373887;stroke-linecap:round;stroke-linejoin:bevel;stroke-miterlimit:4;stroke-dasharray:none;stroke-dashoffset:0;stroke-opacity:1;paint-order:markers stroke fill"
       d="m 6.7937678,187.53186 v -6.02684 H 24.247936 41.702102 v 6.02684 6.02685 H 24.247936 6.7937678 Z"
       id="path3625"
       inkscape:connector-curvature="0" />
    <text
       x="23.655508"
       y="192.00557"
       font-size="14.00"
       id="text2932"
       style="font-size:4.93888998px;font-family:Times, serif;text-anchor:middle;fill:#000000;stroke-width:0.35277799">std::nullptr_t</text>
    <path
       style="fill:#ff0000;fill-opacity:1;stroke:#000000;stroke-width:0.34520999;stroke-linecap:round;stroke-linejoin:bevel;stroke-miterlimit:4;stroke-dasharray:none;stroke-dashoffset:0;stroke-opacity:1;paint-order:markers stroke fill"
       d="m 7.3897307,181.24049 c 0.6204645,-0.0768 1.5525337,-0.0752 2.0712646,0.004 0.518731,0.0788 0.011078,0.14163 -1.1281174,0.13969 -1.1391956,-0.002 -1.5636118,-0.0664 -0.9431472,-0.14321 z"
       id="path3629"
       inkscape:connector-curvature="0" />
    <path
       style="fill:#ff0000;fill-opacity:1;stroke:#000000;stroke-width:0.0610254;stroke-linecap:round;stroke-linejoin:bevel;stroke-miterlimit:4;stroke-dasharray:none;stroke-dashoffset:0;stroke-opacity:1;paint-order:markers stroke fill"
       d="m 6.5847269,180.46549 v -0.51872 h 1.8917819 1.8917822 v 0.51872 0.51871 H 8.4765088 6.5847269 Z"
       id="path3633"
       inkscape:connector-curvature="0" />
  </g>
  <text
     id="text3662"
     y="113.11624"
     x="4.2854161"
     style="font-size:4.23332977px;line-height:1.25;font-family:sans-serif;letter-spacing:0px;word-spacing:0px;fill:#8b0000;stroke-width:0.26458299"
     xml:space="preserve"><tspan
       id="tspan3664"
       style="fill:#8b0000;stroke-width:0.26458299"
       y="113.11624"
       x="4.2854161"
       sodipodi:role="line">correpsonding C++ data types are listed below, the shapes such as hypercubes are supported through objects implementing Standard</tspan><tspan
       id="tspan3668"
       style="fill:#8b0000;stroke-width:0.26458299"
       y="118.40791"
       x="4.2854161"
       sodipodi:role="line">Template Library interfaces. HDF5 ragged arrays are mapped to compositions such as: std::vector&lt;std::vector&lt;T&gt;&gt;</tspan></text>
  <path
     sodipodi:nodetypes="csc"
     inkscape:connector-curvature="0"
     inkscape:connector-type="polyline"
     id="path3740"
     d="m 118.32122,170.27448 151.98809,9.40733"
     style="fill:none;fill-rule:evenodd;stroke:#000000;stroke-width:0.26458299px;stroke-linecap:butt;stroke-linejoin:miter;stroke-opacity:1;marker-end:url(#marker14635)" />
  <text
     id="text3744"
     y="127.94016"
     x="215.49881"
     style="font-size:4.23333px;line-height:1.25;font-family:sans-serif;letter-spacing:0px;word-spacing:0px;fill:#8b0000;stroke-width:0.264583"
     xml:space="preserve"><tspan
       style="fill:#8b0000;stroke-width:0.264583"
       y="127.94016"
       x="215.49881"
       id="tspan3742"
       sodipodi:role="line">Enums require compile</tspan><tspan
       id="tspan3746"
       style="fill:#8b0000;stroke-width:0.264583"
       y="133.23183"
       x="215.49881"
       sodipodi:role="line">time setup on C++ side</tspan><tspan
       id="tspan3748"
       style="fill:#8b0000;stroke-width:0.264583"
       y="138.52348"
       x="215.49881"
       sodipodi:role="line">use std::vector&lt;std::string&gt; </tspan><tspan
       id="tspan3750"
       style="fill:#8b0000;stroke-width:0.264583"
       y="143.81516"
       x="215.49881"
       sodipodi:role="line">instead.</tspan></text>
  <path
     style="fill:#008080;stroke:#000000;stroke-width:0.26458332px;stroke-linecap:butt;stroke-linejoin:miter;stroke-opacity:1"
     d="M 5.5233728,4.6106886 5.1781619,60.189625 295.15522,59.844415 V 4.265478 Z"
     id="path4302"
     inkscape:connector-curvature="0" />
  <text
     xml:space="preserve"
     style="font-style:normal;font-weight:normal;font-size:11.28888893px;line-height:1.25;font-family:sans-serif;text-align:center;letter-spacing:0px;word-spacing:0px;text-anchor:middle;fill:#e3dbdb;fill-opacity:1;stroke:none;stroke-width:0.26458332"
     x="137.85742"
     y="17.728699"
     id="text4306"><tspan
       sodipodi:role="line"
       x="139.65437"
       y="17.728699"
       style="text-align:center;text-anchor:middle;fill:#e3dbdb;stroke-width:0.26458332"
       id="tspan4308">hmm...: general file systems are not aware of </tspan><tspan
       sodipodi:role="line"
       x="139.65439"
       y="31.839809"
       style="text-align:center;text-anchor:middle;fill:#e3dbdb;stroke-width:0.26458332"
       id="tspan4318">data types </tspan><tspan
       sodipodi:role="line"
       x="139.65439"
       y="45.95092"
       style="text-align:center;text-anchor:middle;fill:#e3dbdb;stroke-width:0.26458332"
       id="tspan4314"> </tspan></text>
  <path
     style="fill:#800080;stroke:#000000;stroke-width:0.26458332px;stroke-linecap:butt;stroke-linejoin:miter;stroke-opacity:1"
     d="m 180.20003,65.367788 -8.28506,24.509966 8.28506,-4.487739 -5.86858,27.962075 14.49886,-13.808434 c 22.6202,-5.939812 27.43978,5.814804 48.3295,9.320694 l -46.60345,-24.509967 9.32069,-1.380843 z"
     id="path4320"
     inkscape:connector-curvature="0"
     sodipodi:nodetypes="ccccccccc" />
</svg>
