<svg viewBox="0 0 346 191"  xmlns="http://www.w3.org/2000/svg">
<g  transform="translate(10.0 80.0)" font-size="7" font-family="Ubuntu Mono" font-weight="bold">
<text x="0.00" y="0.00" transform=" rotate(315.0 0.0 0.0)" text-anchor="start">std::is_compound</text>
<text x="11.00" y="0.00" transform=" rotate(315.0 11.0 0.0)" text-anchor="start">std::is_trivial</text>
<text x="22.00" y="0.00" transform=" rotate(315.0 22.0 0.0)" text-anchor="start">std::is_standard_layout</text>
<text x="33.00" y="0.00" transform=" rotate(315.0 33.0 0.0)" text-anchor="start">std::is_pod</text>
<text x="44.00" y="0.00" transform=" rotate(315.0 44.0 0.0)" text-anchor="start">std::is_aggregate</text>
<text x="56.00" y="0.00" transform=" rotate(315.0 56.0 0.0)" text-anchor="start"></text>
<text x="67.00" y="0.00" transform=" rotate(315.0 67.0 0.0)" text-anchor="start">is_scalar</text>
<text x="78.00" y="0.00" transform=" rotate(315.0 78.0 0.0)" text-anchor="start">is_vector</text>
<text x="89.00" y="0.00" transform=" rotate(315.0 89.0 0.0)" text-anchor="start">is_matrix</text>
<text x="100.00" y="0.00" transform=" rotate(315.0 100.0 0.0)" text-anchor="start"></text>
<text x="112.00" y="0.00" transform=" rotate(315.0 112.0 0.0)" text-anchor="start">.data()</text>
<text x="123.00" y="0.00" transform=" rotate(315.0 123.0 0.0)" text-anchor="start">.begin()/.end()</text>
<text x="134.00" y="0.00" transform=" rotate(315.0 134.0 0.0)" text-anchor="start">.size()</text>
<text x="145.00" y="0.00" transform=" rotate(315.0 145.0 0.0)" text-anchor="start">T::value_type</text>
<text x="156.00" y="0.00" transform=" rotate(315.0 156.0 0.0)" text-anchor="start"></text>
<text x="168.00" y="0.00" transform=" rotate(315.0 168.0 0.0)" text-anchor="start">is_stl</text>
<text x="179.00" y="0.00" transform=" rotate(315.0 179.0 0.0)" text-anchor="start">is_array</text>
<text x="190.00" y="0.00" transform=" rotate(315.0 190.0 0.0)" text-anchor="start">is_contiguous</text>
</g>
<g  transform="translate(211.0 88.0)" font-size="7" font-family="Ubuntu Mono" font-weight="bold">
<text x="0.00" y="2.00" text-anchor="start">int</text>
<text x="0.00" y="10.00" text-anchor="start">int[N]</text>
<text x="0.00" y="18.00" text-anchor="start">int[N][M]</text>
<text x="0.00" y="27.00" text-anchor="start">std::byte</text>
<text x="0.00" y="35.00" text-anchor="start">ns::pod_t</text>
<text x="0.00" y="44.00" text-anchor="start">std::complex&lt;float&gt;</text>
<text x="0.00" y="52.00" text-anchor="start">std::string</text>
<text x="0.00" y="60.00" text-anchor="start">std::vector&lt;int&gt;</text>
<text x="0.00" y="69.00" text-anchor="start">std::array&lt;std::array&lt;int,N&gt;,M&gt;</text>
<text x="0.00" y="77.00" text-anchor="start">std::vector&lt;std::string&gt;</text>
<text x="0.00" y="86.00" text-anchor="start">arma::mat</text>
</g>
<text x="5.00" y="15.00" text-anchor="start">Types</text>
<g  transform="translate(5.0 186.0)" font-size="6" font-family="Arial, Helvetica, sans-serif" font-weight="normal">
<text x="13.00" y="0.00" text-anchor="start">yes</text>
<rect x="0.00" y="-8.40" width="10.08" height="7.56" rx="1.50" ry="1.50"  fill="#6B8E23"></rect>
<text x="80.00" y="0.00" text-anchor="start">no</text>
<rect x="67.00" y="-8.40" width="10.08" height="7.56" rx="1.50" ry="1.50"  fill="#FF4500"></rect>
<text x="147.00" y="0.00" text-anchor="start">n/a</text>
<rect x="134.00" y="-8.40" width="10.08" height="7.56" rx="1.50" ry="1.50"  fill="#D8D8D8"></rect>
</g>
<g  transform="translate(4.0 84.0)">
<a href=""><rect x="0.00" y="0.00" width="10.08" height="7.56" rx="1.50" ry="1.50"  fill="#FF4500"><title></title></rect>
</a>
<a href=""><rect x="11.20" y="0.00" width="10.08" height="7.56" rx="1.50" ry="1.50"  fill="#6B8E23"><title></title></rect>
</a>
<a href=""><rect x="22.40" y="0.00" width="10.08" height="7.56" rx="1.50" ry="1.50"  fill="#6B8E23"><title></title></rect>
</a>
<a href=""><rect x="33.60" y="0.00" width="10.08" height="7.56" rx="1.50" ry="1.50"  fill="#6B8E23"><title></title></rect>
</a>
<a href=""><rect x="44.80" y="0.00" width="10.08" height="7.56" rx="1.50" ry="1.50"  fill="#FF4500"><title></title></rect>
</a>
<a href=""><rect x="56.00" y="0.00" width="10.08" height="7.56" rx="1.50" ry="1.50"  fill="#D8D8D8"><title></title></rect>
</a>
<a href=""><rect x="67.20" y="0.00" width="10.08" height="7.56" rx="1.50" ry="1.50"  fill="#6B8E23"><title></title></rect>
</a>
<a href=""><rect x="78.40" y="0.00" width="10.08" height="7.56" rx="1.50" ry="1.50"  fill="#FF4500"><title></title></rect>
</a>
<a href=""><rect x="89.60" y="0.00" width="10.08" height="7.56" rx="1.50" ry="1.50"  fill="#FF4500"><title></title></rect>
</a>
<a href=""><rect x="100.80" y="0.00" width="10.08" height="7.56" rx="1.50" ry="1.50"  fill="#D8D8D8"><title></title></rect>
</a>
<a href=""><rect x="112.00" y="0.00" width="10.08" height="7.56" rx="1.50" ry="1.50"  fill="#FF4500"><title></title></rect>
</a>
<a href=""><rect x="123.20" y="0.00" width="10.08" height="7.56" rx="1.50" ry="1.50"  fill="#FF4500"><title></title></rect>
</a>
<a href=""><rect x="134.40" y="0.00" width="10.08" height="7.56" rx="1.50" ry="1.50"  fill="#FF4500"><title></title></rect>
</a>
<a href=""><rect x="145.60" y="0.00" width="10.08" height="7.56" rx="1.50" ry="1.50"  fill="#FF4500"><title></title></rect>
</a>
<a href=""><rect x="156.80" y="0.00" width="10.08" height="7.56" rx="1.50" ry="1.50"  fill="#D8D8D8"><title></title></rect>
</a>
<a href=""><rect x="168.00" y="0.00" width="10.08" height="7.56" rx="1.50" ry="1.50"  fill="#FF4500"><title></title></rect>
</a>
<a href=""><rect x="179.20" y="0.00" width="10.08" height="7.56" rx="1.50" ry="1.50"  fill="#FF4500"><title></title></rect>
</a>
<a href=""><rect x="190.40" y="0.00" width="10.08" height="7.56" rx="1.50" ry="1.50"  fill="#6B8E23"><title></title></rect>
</a>
<a href=""><rect x="0.00" y="8.40" width="10.08" height="7.56" rx="1.50" ry="1.50"  fill="#6B8E23"><title></title></rect>
</a>
<a href=""><rect x="11.20" y="8.40" width="10.08" height="7.56" rx="1.50" ry="1.50"  fill="#6B8E23"><title></title></rect>
</a>
<a href=""><rect x="22.40" y="8.40" width="10.08" height="7.56" rx="1.50" ry="1.50"  fill="#6B8E23"><title></title></rect>
</a>
<a href=""><rect x="33.60" y="8.40" width="10.08" height="7.56" rx="1.50" ry="1.50"  fill="#6B8E23"><title></title></rect>
</a>
<a href=""><rect x="44.80" y="8.40" width="10.08" height="7.56" rx="1.50" ry="1.50"  fill="#6B8E23"><title></title></rect>
</a>
<a href=""><rect x="56.00" y="8.40" width="10.08" height="7.56" rx="1.50" ry="1.50"  fill="#D8D8D8"><title></title></rect>
</a>
<a href=""><rect x="67.20" y="8.40" width="10.08" height="7.56" rx="1.50" ry="1.50"  fill="#FF4500"><title></title></rect>
</a>
<a href=""><rect x="78.40" y="8.40" width="10.08" height="7.56" rx="1.50" ry="1.50"  fill="#6B8E23"><title></title></rect>
</a>
<a href=""><rect x="89.60" y="8.40" width="10.08" height="7.56" rx="1.50" ry="1.50"  fill="#FF4500"><title></title></rect>
</a>
<a href=""><rect x="100.80" y="8.40" width="10.08" height="7.56" rx="1.50" ry="1.50"  fill="#D8D8D8"><title></title></rect>
</a>
<a href=""><rect x="112.00" y="8.40" width="10.08" height="7.56" rx="1.50" ry="1.50"  fill="#FF4500"><title></title></rect>
</a>
<a href=""><rect x="123.20" y="8.40" width="10.08" height="7.56" rx="1.50" ry="1.50"  fill="#FF4500"><title></title></rect>
</a>
<a href=""><rect x="134.40" y="8.40" width="10.08" height="7.56" rx="1.50" ry="1.50"  fill="#FF4500"><title></title></rect>
</a>
<a href=""><rect x="145.60" y="8.40" width="10.08" height="7.56" rx="1.50" ry="1.50"  fill="#FF4500"><title></title></rect>
</a>
<a href=""><rect x="156.80" y="8.40" width="10.08" height="7.56" rx="1.50" ry="1.50"  fill="#D8D8D8"><title></title></rect>
</a>
<a href=""><rect x="168.00" y="8.40" width="10.08" height="7.56" rx="1.50" ry="1.50"  fill="#FF4500"><title></title></rect>
</a>
<a href=""><rect x="179.20" y="8.40" width="10.08" height="7.56" rx="1.50" ry="1.50"  fill="#6B8E23"><title></title></rect>
</a>
<a href=""><rect x="190.40" y="8.40" width="10.08" height="7.56" rx="1.50" ry="1.50"  fill="#6B8E23"><title></title></rect>
</a>
<a href=""><rect x="0.00" y="16.80" width="10.08" height="7.56" rx="1.50" ry="1.50"  fill="#6B8E23"><title></title></rect>
</a>
<a href=""><rect x="11.20" y="16.80" width="10.08" height="7.56" rx="1.50" ry="1.50"  fill="#6B8E23"><title></title></rect>
</a>
<a href=""><rect x="22.40" y="16.80" width="10.08" height="7.56" rx="1.50" ry="1.50"  fill="#6B8E23"><title></title></rect>
</a>
<a href=""><rect x="33.60" y="16.80" width="10.08" height="7.56" rx="1.50" ry="1.50"  fill="#6B8E23"><title></title></rect>
</a>
<a href=""><rect x="44.80" y="16.80" width="10.08" height="7.56" rx="1.50" ry="1.50"  fill="#6B8E23"><title></title></rect>
</a>
<a href=""><rect x="56.00" y="16.80" width="10.08" height="7.56" rx="1.50" ry="1.50"  fill="#D8D8D8"><title></title></rect>
</a>
<a href=""><rect x="67.20" y="16.80" width="10.08" height="7.56" rx="1.50" ry="1.50"  fill="#FF4500"><title></title></rect>
</a>
<a href=""><rect x="78.40" y="16.80" width="10.08" height="7.56" rx="1.50" ry="1.50"  fill="#FF4500"><title></title></rect>
</a>
<a href=""><rect x="89.60" y="16.80" width="10.08" height="7.56" rx="1.50" ry="1.50"  fill="#6B8E23"><title></title></rect>
</a>
<a href=""><rect x="100.80" y="16.80" width="10.08" height="7.56" rx="1.50" ry="1.50"  fill="#D8D8D8"><title></title></rect>
</a>
<a href=""><rect x="112.00" y="16.80" width="10.08" height="7.56" rx="1.50" ry="1.50"  fill="#FF4500"><title></title></rect>
</a>
<a href=""><rect x="123.20" y="16.80" width="10.08" height="7.56" rx="1.50" ry="1.50"  fill="#FF4500"><title></title></rect>
</a>
<a href=""><rect x="134.40" y="16.80" width="10.08" height="7.56" rx="1.50" ry="1.50"  fill="#FF4500"><title></title></rect>
</a>
<a href=""><rect x="145.60" y="16.80" width="10.08" height="7.56" rx="1.50" ry="1.50"  fill="#FF4500"><title></title></rect>
</a>
<a href=""><rect x="156.80" y="16.80" width="10.08" height="7.56" rx="1.50" ry="1.50"  fill="#D8D8D8"><title></title></rect>
</a>
<a href=""><rect x="168.00" y="16.80" width="10.08" height="7.56" rx="1.50" ry="1.50"  fill="#FF4500"><title></title></rect>
</a>
<a href=""><rect x="179.20" y="16.80" width="10.08" height="7.56" rx="1.50" ry="1.50"  fill="#6B8E23"><title></title></rect>
</a>
<a href=""><rect x="190.40" y="16.80" width="10.08" height="7.56" rx="1.50" ry="1.50"  fill="#6B8E23"><title></title></rect>
</a>
<a href=""><rect x="0.00" y="25.20" width="10.08" height="7.56" rx="1.50" ry="1.50"  fill="#6B8E23"><title></title></rect>
</a>
<a href=""><rect x="11.20" y="25.20" width="10.08" height="7.56" rx="1.50" ry="1.50"  fill="#6B8E23"><title></title></rect>
</a>
<a href=""><rect x="22.40" y="25.20" width="10.08" height="7.56" rx="1.50" ry="1.50"  fill="#6B8E23"><title></title></rect>
</a>
<a href=""><rect x="33.60" y="25.20" width="10.08" height="7.56" rx="1.50" ry="1.50"  fill="#6B8E23"><title></title></rect>
</a>
<a href=""><rect x="44.80" y="25.20" width="10.08" height="7.56" rx="1.50" ry="1.50"  fill="#FF4500"><title></title></rect>
</a>
<a href=""><rect x="56.00" y="25.20" width="10.08" height="7.56" rx="1.50" ry="1.50"  fill="#D8D8D8"><title></title></rect>
</a>
<a href=""><rect x="67.20" y="25.20" width="10.08" height="7.56" rx="1.50" ry="1.50"  fill="#6B8E23"><title></title></rect>
</a>
<a href=""><rect x="78.40" y="25.20" width="10.08" height="7.56" rx="1.50" ry="1.50"  fill="#FF4500"><title></title></rect>
</a>
<a href=""><rect x="89.60" y="25.20" width="10.08" height="7.56" rx="1.50" ry="1.50"  fill="#FF4500"><title></title></rect>
</a>
<a href=""><rect x="100.80" y="25.20" width="10.08" height="7.56" rx="1.50" ry="1.50"  fill="#D8D8D8"><title></title></rect>
</a>
<a href=""><rect x="112.00" y="25.20" width="10.08" height="7.56" rx="1.50" ry="1.50"  fill="#FF4500"><title></title></rect>
</a>
<a href=""><rect x="123.20" y="25.20" width="10.08" height="7.56" rx="1.50" ry="1.50"  fill="#FF4500"><title></title></rect>
</a>
<a href=""><rect x="134.40" y="25.20" width="10.08" height="7.56" rx="1.50" ry="1.50"  fill="#FF4500"><title></title></rect>
</a>
<a href=""><rect x="145.60" y="25.20" width="10.08" height="7.56" rx="1.50" ry="1.50"  fill="#FF4500"><title></title></rect>
</a>
<a href=""><rect x="156.80" y="25.20" width="10.08" height="7.56" rx="1.50" ry="1.50"  fill="#D8D8D8"><title></title></rect>
</a>
<a href=""><rect x="168.00" y="25.20" width="10.08" height="7.56" rx="1.50" ry="1.50"  fill="#FF4500"><title></title></rect>
</a>
<a href=""><rect x="179.20" y="25.20" width="10.08" height="7.56" rx="1.50" ry="1.50"  fill="#FF4500"><title></title></rect>
</a>
<a href=""><rect x="190.40" y="25.20" width="10.08" height="7.56" rx="1.50" ry="1.50"  fill="#6B8E23"><title></title></rect>
</a>
<a href=""><rect x="0.00" y="33.60" width="10.08" height="7.56" rx="1.50" ry="1.50"  fill="#6B8E23"><title></title></rect>
</a>
<a href=""><rect x="11.20" y="33.60" width="10.08" height="7.56" rx="1.50" ry="1.50"  fill="#6B8E23"><title></title></rect>
</a>
<a href=""><rect x="22.40" y="33.60" width="10.08" height="7.56" rx="1.50" ry="1.50"  fill="#6B8E23"><title></title></rect>
</a>
<a href=""><rect x="33.60" y="33.60" width="10.08" height="7.56" rx="1.50" ry="1.50"  fill="#6B8E23"><title></title></rect>
</a>
<a href=""><rect x="44.80" y="33.60" width="10.08" height="7.56" rx="1.50" ry="1.50"  fill="#6B8E23"><title></title></rect>
</a>
<a href=""><rect x="56.00" y="33.60" width="10.08" height="7.56" rx="1.50" ry="1.50"  fill="#D8D8D8"><title></title></rect>
</a>
<a href=""><rect x="67.20" y="33.60" width="10.08" height="7.56" rx="1.50" ry="1.50"  fill="#6B8E23"><title></title></rect>
</a>
<a href=""><rect x="78.40" y="33.60" width="10.08" height="7.56" rx="1.50" ry="1.50"  fill="#FF4500"><title></title></rect>
</a>
<a href=""><rect x="89.60" y="33.60" width="10.08" height="7.56" rx="1.50" ry="1.50"  fill="#FF4500"><title></title></rect>
</a>
<a href=""><rect x="100.80" y="33.60" width="10.08" height="7.56" rx="1.50" ry="1.50"  fill="#D8D8D8"><title></title></rect>
</a>
<a href=""><rect x="112.00" y="33.60" width="10.08" height="7.56" rx="1.50" ry="1.50"  fill="#FF4500"><title></title></rect>
</a>
<a href=""><rect x="123.20" y="33.60" width="10.08" height="7.56" rx="1.50" ry="1.50"  fill="#FF4500"><title></title></rect>
</a>
<a href=""><rect x="134.40" y="33.60" width="10.08" height="7.56" rx="1.50" ry="1.50"  fill="#FF4500"><title></title></rect>
</a>
<a href=""><rect x="145.60" y="33.60" width="10.08" height="7.56" rx="1.50" ry="1.50"  fill="#FF4500"><title></title></rect>
</a>
<a href=""><rect x="156.80" y="33.60" width="10.08" height="7.56" rx="1.50" ry="1.50"  fill="#D8D8D8"><title></title></rect>
</a>
<a href=""><rect x="168.00" y="33.60" width="10.08" height="7.56" rx="1.50" ry="1.50"  fill="#FF4500"><title></title></rect>
</a>
<a href=""><rect x="179.20" y="33.60" width="10.08" height="7.56" rx="1.50" ry="1.50"  fill="#FF4500"><title></title></rect>
</a>
<a href=""><rect x="190.40" y="33.60" width="10.08" height="7.56" rx="1.50" ry="1.50"  fill="#6B8E23"><title></title></rect>
</a>
<a href=""><rect x="0.00" y="42.00" width="10.08" height="7.56" rx="1.50" ry="1.50"  fill="#6B8E23"><title></title></rect>
</a>
<a href=""><rect x="11.20" y="42.00" width="10.08" height="7.56" rx="1.50" ry="1.50"  fill="#FF4500"><title></title></rect>
</a>
<a href=""><rect x="22.40" y="42.00" width="10.08" height="7.56" rx="1.50" ry="1.50"  fill="#6B8E23"><title></title></rect>
</a>
<a href=""><rect x="33.60" y="42.00" width="10.08" height="7.56" rx="1.50" ry="1.50"  fill="#FF4500"><title></title></rect>
</a>
<a href=""><rect x="44.80" y="42.00" width="10.08" height="7.56" rx="1.50" ry="1.50"  fill="#FF4500"><title></title></rect>
</a>
<a href=""><rect x="56.00" y="42.00" width="10.08" height="7.56" rx="1.50" ry="1.50"  fill="#D8D8D8"><title></title></rect>
</a>
<a href=""><rect x="67.20" y="42.00" width="10.08" height="7.56" rx="1.50" ry="1.50"  fill="#6B8E23"><title></title></rect>
</a>
<a href=""><rect x="78.40" y="42.00" width="10.08" height="7.56" rx="1.50" ry="1.50"  fill="#FF4500"><title></title></rect>
</a>
<a href=""><rect x="89.60" y="42.00" width="10.08" height="7.56" rx="1.50" ry="1.50"  fill="#FF4500"><title></title></rect>
</a>
<a href=""><rect x="100.80" y="42.00" width="10.08" height="7.56" rx="1.50" ry="1.50"  fill="#D8D8D8"><title></title></rect>
</a>
<a href=""><rect x="112.00" y="42.00" width="10.08" height="7.56" rx="1.50" ry="1.50"  fill="#FF4500"><title></title></rect>
</a>
<a href=""><rect x="123.20" y="42.00" width="10.08" height="7.56" rx="1.50" ry="1.50"  fill="#FF4500"><title></title></rect>
</a>
<a href=""><rect x="134.40" y="42.00" width="10.08" height="7.56" rx="1.50" ry="1.50"  fill="#FF4500"><title></title></rect>
</a>
<a href=""><rect x="145.60" y="42.00" width="10.08" height="7.56" rx="1.50" ry="1.50"  fill="#6B8E23"><title></title></rect>
</a>
<a href=""><rect x="156.80" y="42.00" width="10.08" height="7.56" rx="1.50" ry="1.50"  fill="#D8D8D8"><title></title></rect>
</a>
<a href=""><rect x="168.00" y="42.00" width="10.08" height="7.56" rx="1.50" ry="1.50"  fill="#6B8E23"><title></title></rect>
</a>
<a href=""><rect x="179.20" y="42.00" width="10.08" height="7.56" rx="1.50" ry="1.50"  fill="#FF4500"><title></title></rect>
</a>
<a href=""><rect x="190.40" y="42.00" width="10.08" height="7.56" rx="1.50" ry="1.50"  fill="#6B8E23"><title></title></rect>
</a>
<a href=""><rect x="0.00" y="50.40" width="10.08" height="7.56" rx="1.50" ry="1.50"  fill="#6B8E23"><title></title></rect>
</a>
<a href=""><rect x="11.20" y="50.40" width="10.08" height="7.56" rx="1.50" ry="1.50"  fill="#FF4500"><title></title></rect>
</a>
<a href=""><rect x="22.40" y="50.40" width="10.08" height="7.56" rx="1.50" ry="1.50"  fill="#6B8E23"><title></title></rect>
</a>
<a href=""><rect x="33.60" y="50.40" width="10.08" height="7.56" rx="1.50" ry="1.50"  fill="#FF4500"><title></title></rect>
</a>
<a href=""><rect x="44.80" y="50.40" width="10.08" height="7.56" rx="1.50" ry="1.50"  fill="#FF4500"><title></title></rect>
</a>
<a href=""><rect x="56.00" y="50.40" width="10.08" height="7.56" rx="1.50" ry="1.50"  fill="#D8D8D8"><title></title></rect>
</a>
<a href=""><rect x="67.20" y="50.40" width="10.08" height="7.56" rx="1.50" ry="1.50"  fill="#6B8E23"><title></title></rect>
</a>
<a href=""><rect x="78.40" y="50.40" width="10.08" height="7.56" rx="1.50" ry="1.50"  fill="#FF4500"><title></title></rect>
</a>
<a href=""><rect x="89.60" y="50.40" width="10.08" height="7.56" rx="1.50" ry="1.50"  fill="#FF4500"><title></title></rect>
</a>
<a href=""><rect x="100.80" y="50.40" width="10.08" height="7.56" rx="1.50" ry="1.50"  fill="#D8D8D8"><title></title></rect>
</a>
<a href=""><rect x="112.00" y="50.40" width="10.08" height="7.56" rx="1.50" ry="1.50"  fill="#6B8E23"><title></title></rect>
</a>
<a href=""><rect x="123.20" y="50.40" width="10.08" height="7.56" rx="1.50" ry="1.50"  fill="#6B8E23"><title></title></rect>
</a>
<a href=""><rect x="134.40" y="50.40" width="10.08" height="7.56" rx="1.50" ry="1.50"  fill="#6B8E23"><title></title></rect>
</a>
<a href=""><rect x="145.60" y="50.40" width="10.08" height="7.56" rx="1.50" ry="1.50"  fill="#6B8E23"><title></title></rect>
</a>
<a href=""><rect x="156.80" y="50.40" width="10.08" height="7.56" rx="1.50" ry="1.50"  fill="#D8D8D8"><title></title></rect>
</a>
<a href=""><rect x="168.00" y="50.40" width="10.08" height="7.56" rx="1.50" ry="1.50"  fill="#6B8E23"><title></title></rect>
</a>
<a href=""><rect x="179.20" y="50.40" width="10.08" height="7.56" rx="1.50" ry="1.50"  fill="#FF4500"><title></title></rect>
</a>
<a href=""><rect x="190.40" y="50.40" width="10.08" height="7.56" rx="1.50" ry="1.50"  fill="#6B8E23"><title></title></rect>
</a>
<a href=""><rect x="0.00" y="58.80" width="10.08" height="7.56" rx="1.50" ry="1.50"  fill="#6B8E23"><title></title></rect>
</a>
<a href=""><rect x="11.20" y="58.80" width="10.08" height="7.56" rx="1.50" ry="1.50"  fill="#FF4500"><title></title></rect>
</a>
<a href=""><rect x="22.40" y="58.80" width="10.08" height="7.56" rx="1.50" ry="1.50"  fill="#6B8E23"><title></title></rect>
</a>
<a href=""><rect x="33.60" y="58.80" width="10.08" height="7.56" rx="1.50" ry="1.50"  fill="#FF4500"><title></title></rect>
</a>
<a href=""><rect x="44.80" y="58.80" width="10.08" height="7.56" rx="1.50" ry="1.50"  fill="#FF4500"><title></title></rect>
</a>
<a href=""><rect x="56.00" y="58.80" width="10.08" height="7.56" rx="1.50" ry="1.50"  fill="#D8D8D8"><title></title></rect>
</a>
<a href=""><rect x="67.20" y="58.80" width="10.08" height="7.56" rx="1.50" ry="1.50"  fill="#FF4500"><title></title></rect>
</a>
<a href=""><rect x="78.40" y="58.80" width="10.08" height="7.56" rx="1.50" ry="1.50"  fill="#6B8E23"><title></title></rect>
</a>
<a href=""><rect x="89.60" y="58.80" width="10.08" height="7.56" rx="1.50" ry="1.50"  fill="#FF4500"><title></title></rect>
</a>
<a href=""><rect x="100.80" y="58.80" width="10.08" height="7.56" rx="1.50" ry="1.50"  fill="#D8D8D8"><title></title></rect>
</a>
<a href=""><rect x="112.00" y="58.80" width="10.08" height="7.56" rx="1.50" ry="1.50"  fill="#6B8E23"><title></title></rect>
</a>
<a href=""><rect x="123.20" y="58.80" width="10.08" height="7.56" rx="1.50" ry="1.50"  fill="#6B8E23"><title></title></rect>
</a>
<a href=""><rect x="134.40" y="58.80" width="10.08" height="7.56" rx="1.50" ry="1.50"  fill="#6B8E23"><title></title></rect>
</a>
<a href=""><rect x="145.60" y="58.80" width="10.08" height="7.56" rx="1.50" ry="1.50"  fill="#6B8E23"><title></title></rect>
</a>
<a href=""><rect x="156.80" y="58.80" width="10.08" height="7.56" rx="1.50" ry="1.50"  fill="#D8D8D8"><title></title></rect>
</a>
<a href=""><rect x="168.00" y="58.80" width="10.08" height="7.56" rx="1.50" ry="1.50"  fill="#6B8E23"><title></title></rect>
</a>
<a href=""><rect x="179.20" y="58.80" width="10.08" height="7.56" rx="1.50" ry="1.50"  fill="#FF4500"><title></title></rect>
</a>
<a href=""><rect x="190.40" y="58.80" width="10.08" height="7.56" rx="1.50" ry="1.50"  fill="#6B8E23"><title></title></rect>
</a>
<a href=""><rect x="0.00" y="67.20" width="10.08" height="7.56" rx="1.50" ry="1.50"  fill="#6B8E23"><title></title></rect>
</a>
<a href=""><rect x="11.20" y="67.20" width="10.08" height="7.56" rx="1.50" ry="1.50"  fill="#6B8E23"><title></title></rect>
</a>
<a href=""><rect x="22.40" y="67.20" width="10.08" height="7.56" rx="1.50" ry="1.50"  fill="#6B8E23"><title></title></rect>
</a>
<a href=""><rect x="33.60" y="67.20" width="10.08" height="7.56" rx="1.50" ry="1.50"  fill="#6B8E23"><title></title></rect>
</a>
<a href=""><rect x="44.80" y="67.20" width="10.08" height="7.56" rx="1.50" ry="1.50"  fill="#6B8E23"><title></title></rect>
</a>
<a href=""><rect x="56.00" y="67.20" width="10.08" height="7.56" rx="1.50" ry="1.50"  fill="#D8D8D8"><title></title></rect>
</a>
<a href=""><rect x="67.20" y="67.20" width="10.08" height="7.56" rx="1.50" ry="1.50"  fill="#FF4500"><title></title></rect>
</a>
<a href=""><rect x="78.40" y="67.20" width="10.08" height="7.56" rx="1.50" ry="1.50"  fill="#6B8E23"><title></title></rect>
</a>
<a href=""><rect x="89.60" y="67.20" width="10.08" height="7.56" rx="1.50" ry="1.50"  fill="#FF4500"><title></title></rect>
</a>
<a href=""><rect x="100.80" y="67.20" width="10.08" height="7.56" rx="1.50" ry="1.50"  fill="#D8D8D8"><title></title></rect>
</a>
<a href=""><rect x="112.00" y="67.20" width="10.08" height="7.56" rx="1.50" ry="1.50"  fill="#6B8E23"><title></title></rect>
</a>
<a href=""><rect x="123.20" y="67.20" width="10.08" height="7.56" rx="1.50" ry="1.50"  fill="#6B8E23"><title></title></rect>
</a>
<a href=""><rect x="134.40" y="67.20" width="10.08" height="7.56" rx="1.50" ry="1.50"  fill="#6B8E23"><title></title></rect>
</a>
<a href=""><rect x="145.60" y="67.20" width="10.08" height="7.56" rx="1.50" ry="1.50"  fill="#6B8E23"><title></title></rect>
</a>
<a href=""><rect x="156.80" y="67.20" width="10.08" height="7.56" rx="1.50" ry="1.50"  fill="#D8D8D8"><title></title></rect>
</a>
<a href=""><rect x="168.00" y="67.20" width="10.08" height="7.56" rx="1.50" ry="1.50"  fill="#6B8E23"><title></title></rect>
</a>
<a href=""><rect x="179.20" y="67.20" width="10.08" height="7.56" rx="1.50" ry="1.50"  fill="#6B8E23"><title></title></rect>
</a>
<a href=""><rect x="190.40" y="67.20" width="10.08" height="7.56" rx="1.50" ry="1.50"  fill="#6B8E23"><title></title></rect>
</a>
<a href=""><rect x="0.00" y="75.60" width="10.08" height="7.56" rx="1.50" ry="1.50"  fill="#6B8E23"><title></title></rect>
</a>
<a href=""><rect x="11.20" y="75.60" width="10.08" height="7.56" rx="1.50" ry="1.50"  fill="#FF4500"><title></title></rect>
</a>
<a href=""><rect x="22.40" y="75.60" width="10.08" height="7.56" rx="1.50" ry="1.50"  fill="#6B8E23"><title></title></rect>
</a>
<a href=""><rect x="33.60" y="75.60" width="10.08" height="7.56" rx="1.50" ry="1.50"  fill="#FF4500"><title></title></rect>
</a>
<a href=""><rect x="44.80" y="75.60" width="10.08" height="7.56" rx="1.50" ry="1.50"  fill="#FF4500"><title></title></rect>
</a>
<a href=""><rect x="56.00" y="75.60" width="10.08" height="7.56" rx="1.50" ry="1.50"  fill="#D8D8D8"><title></title></rect>
</a>
<a href=""><rect x="67.20" y="75.60" width="10.08" height="7.56" rx="1.50" ry="1.50"  fill="#FF4500"><title></title></rect>
</a>
<a href=""><rect x="78.40" y="75.60" width="10.08" height="7.56" rx="1.50" ry="1.50"  fill="#6B8E23"><title></title></rect>
</a>
<a href=""><rect x="89.60" y="75.60" width="10.08" height="7.56" rx="1.50" ry="1.50"  fill="#FF4500"><title></title></rect>
</a>
<a href=""><rect x="100.80" y="75.60" width="10.08" height="7.56" rx="1.50" ry="1.50"  fill="#D8D8D8"><title></title></rect>
</a>
<a href=""><rect x="112.00" y="75.60" width="10.08" height="7.56" rx="1.50" ry="1.50"  fill="#6B8E23"><title></title></rect>
</a>
<a href=""><rect x="123.20" y="75.60" width="10.08" height="7.56" rx="1.50" ry="1.50"  fill="#6B8E23"><title></title></rect>
</a>
<a href=""><rect x="134.40" y="75.60" width="10.08" height="7.56" rx="1.50" ry="1.50"  fill="#6B8E23"><title></title></rect>
</a>
<a href=""><rect x="145.60" y="75.60" width="10.08" height="7.56" rx="1.50" ry="1.50"  fill="#6B8E23"><title></title></rect>
</a>
<a href=""><rect x="156.80" y="75.60" width="10.08" height="7.56" rx="1.50" ry="1.50"  fill="#D8D8D8"><title></title></rect>
</a>
<a href=""><rect x="168.00" y="75.60" width="10.08" height="7.56" rx="1.50" ry="1.50"  fill="#6B8E23"><title></title></rect>
</a>
<a href=""><rect x="179.20" y="75.60" width="10.08" height="7.56" rx="1.50" ry="1.50"  fill="#FF4500"><title></title></rect>
</a>
<a href=""><rect x="190.40" y="75.60" width="10.08" height="7.56" rx="1.50" ry="1.50"  fill="#FF4500"><title></title></rect>
</a>
<a href=""><rect x="0.00" y="84.00" width="10.08" height="7.56" rx="1.50" ry="1.50"  fill="#6B8E23"><title></title></rect>
</a>
<a href=""><rect x="11.20" y="84.00" width="10.08" height="7.56" rx="1.50" ry="1.50"  fill="#FF4500"><title></title></rect>
</a>
<a href=""><rect x="22.40" y="84.00" width="10.08" height="7.56" rx="1.50" ry="1.50"  fill="#FF4500"><title></title></rect>
</a>
<a href=""><rect x="33.60" y="84.00" width="10.08" height="7.56" rx="1.50" ry="1.50"  fill="#FF4500"><title></title></rect>
</a>
<a href=""><rect x="44.80" y="84.00" width="10.08" height="7.56" rx="1.50" ry="1.50"  fill="#FF4500"><title></title></rect>
</a>
<a href=""><rect x="56.00" y="84.00" width="10.08" height="7.56" rx="1.50" ry="1.50"  fill="#D8D8D8"><title></title></rect>
</a>
<a href=""><rect x="67.20" y="84.00" width="10.08" height="7.56" rx="1.50" ry="1.50"  fill="#FF4500"><title></title></rect>
</a>
<a href=""><rect x="78.40" y="84.00" width="10.08" height="7.56" rx="1.50" ry="1.50"  fill="#FF4500"><title></title></rect>
</a>
<a href=""><rect x="89.60" y="84.00" width="10.08" height="7.56" rx="1.50" ry="1.50"  fill="#6B8E23"><title></title></rect>
</a>
<a href=""><rect x="100.80" y="84.00" width="10.08" height="7.56" rx="1.50" ry="1.50"  fill="#D8D8D8"><title></title></rect>
</a>
<a href=""><rect x="112.00" y="84.00" width="10.08" height="7.56" rx="1.50" ry="1.50"  fill="#FF4500"><title></title></rect>
</a>
<a href=""><rect x="123.20" y="84.00" width="10.08" height="7.56" rx="1.50" ry="1.50"  fill="#6B8E23"><title></title></rect>
</a>
<a href=""><rect x="134.40" y="84.00" width="10.08" height="7.56" rx="1.50" ry="1.50"  fill="#6B8E23"><title></title></rect>
</a>
<a href=""><rect x="145.60" y="84.00" width="10.08" height="7.56" rx="1.50" ry="1.50"  fill="#6B8E23"><title></title></rect>
</a>
<a href=""><rect x="156.80" y="84.00" width="10.08" height="7.56" rx="1.50" ry="1.50"  fill="#D8D8D8"><title></title></rect>
</a>
<a href=""><rect x="168.00" y="84.00" width="10.08" height="7.56" rx="1.50" ry="1.50"  fill="#6B8E23"><title></title></rect>
</a>
<a href=""><rect x="179.20" y="84.00" width="10.08" height="7.56" rx="1.50" ry="1.50"  fill="#FF4500"><title></title></rect>
</a>
<a href=""><rect x="190.40" y="84.00" width="10.08" height="7.56" rx="1.50" ry="1.50"  fill="#6B8E23"><title></title></rect>
</a>
</g>
</svg>
